<svg width="263" height="185" viewBox="0 0 263 185" fill="none" xmlns="http://www.w3.org/2000/svg">
<path d="M78.3808 29.2609L110.445 30.3169L119.469 30.1249C119.661 31.4689 119.757 32.8769 119.757 34.3489C119.757 35.8209 119.501 36.8769 118.989 37.5169C118.477 38.1569 117.549 38.4769 116.205 38.4769C116.077 38.4769 111.565 38.0609 102.669 37.2289C102.413 40.1089 101.453 45.0369 99.7888 52.0129C98.1248 58.9889 96.5248 66.4449 94.9888 74.3809C93.4528 82.3169 92.6528 89.4529 92.5888 95.7889C90.0928 97.0689 84.9728 97.7089 77.2288 97.7089H76.5568C76.5568 94.3809 78.3808 84.4609 82.0288 67.9489C85.6768 51.4369 87.5008 41.3889 87.5008 37.8049C87.5008 37.5489 87.4368 37.1009 87.3088 36.4609H83.4688C78.2208 36.4609 74.1888 37.2609 71.3728 38.8609C69.9008 36.9409 69.0048 34.1249 68.6848 30.4129C70.8608 29.6449 74.0928 29.2609 78.3808 29.2609ZM135.983 60.8449C135.983 63.5329 135.119 68.1729 133.391 74.7649C131.663 81.2929 130.799 85.5809 130.799 87.6289C130.799 89.6129 131.087 90.6049 131.663 90.6049C132.047 90.6049 133.519 89.9969 136.079 88.7809L137.231 88.2049L138.863 91.5649C138.287 92.0769 137.519 92.7169 136.559 93.4849C135.599 94.2529 133.807 95.3089 131.183 96.6529C128.559 97.9329 126.127 98.5729 123.887 98.5729C121.647 98.5729 119.887 97.9009 118.607 96.5569C117.327 95.1489 116.687 93.2929 116.687 90.9889C116.687 88.6209 117.487 84.4609 119.087 78.5089C120.687 72.4929 121.487 68.5889 121.487 66.7969C121.487 64.1089 120.655 61.5809 118.991 59.2129L118.127 58.0609L118.223 56.8129C121.615 55.8529 127.119 55.3729 134.735 55.3729C135.567 56.3329 135.983 58.1569 135.983 60.8449ZM125.039 44.9089C123.759 43.6289 123.119 41.9329 123.119 39.8209C123.119 37.7089 123.983 35.8529 125.711 34.2529C127.503 32.6529 129.551 31.8529 131.855 31.8529C134.159 31.8529 135.951 32.4929 137.231 33.7729C138.511 35.0529 139.151 36.7489 139.151 38.8609C139.151 40.9089 138.223 42.7329 136.367 44.3329C134.575 45.9329 132.559 46.7329 130.319 46.7329C128.079 46.7329 126.319 46.1249 125.039 44.9089ZM172.315 56.0449C172.187 57.6449 171.643 59.5009 170.683 61.6129C168.251 61.3569 165.947 61.2289 163.771 61.2289H162.043C159.099 75.5009 157.627 84.3969 157.627 87.9169C157.627 89.7729 158.011 90.7009 158.779 90.7009C159.611 90.7009 161.755 89.9009 165.211 88.3009L166.939 91.4689C161.243 96.2049 155.963 98.5729 151.099 98.5729C148.859 98.5729 147.003 97.8689 145.531 96.4609C144.123 95.0529 143.419 93.1969 143.419 90.8929C143.419 88.5249 143.675 85.8689 144.187 82.9249C144.763 79.9809 145.531 76.3969 146.491 72.1729C147.451 67.8849 148.155 64.4289 148.603 61.8049C146.235 61.9969 144.475 62.1889 143.323 62.3809C143.195 61.6129 143.131 60.5889 143.131 59.3089C143.131 57.9649 143.227 56.8769 143.419 56.0449H149.467C149.979 52.5889 150.235 49.3249 150.235 46.2529L150.139 43.2769V42.9889C155.131 41.2609 159.835 40.3969 164.251 40.3969C164.507 41.6769 164.635 43.2769 164.635 45.1969C164.635 47.1169 164.091 50.7329 163.003 56.0449H172.315ZM191.389 60.8449C191.389 63.5329 190.525 68.1729 188.797 74.7649C187.069 81.2929 186.205 85.5809 186.205 87.6289C186.205 89.6129 186.493 90.6049 187.069 90.6049C187.453 90.6049 188.925 89.9969 191.485 88.7809L192.637 88.2049L194.269 91.5649C193.693 92.0769 192.925 92.7169 191.965 93.4849C191.005 94.2529 189.213 95.3089 186.589 96.6529C183.965 97.9329 181.533 98.5729 179.293 98.5729C177.053 98.5729 175.293 97.9009 174.013 96.5569C172.733 95.1489 172.093 93.2929 172.093 90.9889C172.093 88.6209 172.893 84.4609 174.493 78.5089C176.093 72.4929 176.893 68.5889 176.893 66.7969C176.893 64.1089 176.061 61.5809 174.397 59.2129L173.533 58.0609L173.629 56.8129C177.021 55.8529 182.525 55.3729 190.141 55.3729C190.973 56.3329 191.389 58.1569 191.389 60.8449ZM180.445 44.9089C179.165 43.6289 178.525 41.9329 178.525 39.8209C178.525 37.7089 179.389 35.8529 181.117 34.2529C182.909 32.6529 184.957 31.8529 187.261 31.8529C189.565 31.8529 191.357 32.4929 192.637 33.7729C193.917 35.0529 194.557 36.7489 194.557 38.8609C194.557 40.9089 193.629 42.7329 191.773 44.3329C189.981 45.9329 187.965 46.7329 185.725 46.7329C183.485 46.7329 181.725 46.1249 180.445 44.9089Z" fill="#D95032"/>
<path d="M32.3305 151.3C28.8745 151.3 24.4905 150.66 19.1785 149.38C15.8505 150.276 12.7465 150.724 9.8665 150.724C6.9865 150.724 5.3225 150.628 4.8745 150.436C5.3225 146.596 7.2105 137.156 10.5385 122.116C13.9305 107.012 15.6265 97.5404 15.6265 93.7004C15.6265 92.9324 15.2105 91.9084 14.3785 90.6284C13.5465 89.3484 12.7145 88.2604 11.8825 87.3644L10.6345 86.0204L10.9225 84.5804C19.3065 82.8524 28.3305 81.9884 37.9945 81.9884C43.3065 81.9884 47.6585 83.2684 51.0505 85.8284C54.5065 88.3244 56.2345 91.8444 56.2345 96.3884C56.2345 105.156 50.8905 111.236 40.2025 114.628C44.4905 115.14 48.0745 116.772 50.9545 119.524C53.8985 122.212 55.3705 126.02 55.3705 130.948C55.3705 136.964 53.1945 141.86 48.8425 145.636C44.4905 149.412 38.9865 151.3 32.3305 151.3ZM30.6025 117.22C28.8105 117.22 27.2105 117.38 25.8025 117.7C23.0505 129.86 21.2905 138.34 20.5225 143.14C22.1225 144.228 24.6185 144.772 28.0105 144.772C31.4665 144.772 34.4105 143.428 36.8425 140.74C39.2745 137.988 40.4905 134.052 40.4905 128.932C40.4905 121.124 37.1945 117.22 30.6025 117.22ZM35.9785 87.9404C33.5465 87.9404 32.1065 88.1644 31.6585 88.6124C30.7625 94.3724 29.2905 101.924 27.2425 111.268C29.8025 111.268 31.5945 111.108 32.6185 110.788C33.6425 110.468 34.5385 110.052 35.3065 109.54C36.1385 109.028 37.0665 108.228 38.0905 107.14C40.3305 104.772 41.4505 100.996 41.4505 95.8124C41.4505 90.5644 39.6265 87.9404 35.9785 87.9404ZM61.0172 142.948C61.0172 140.196 61.8492 135.524 63.5132 128.932C65.1772 122.276 66.0092 118.212 66.0092 116.74C66.0092 115.204 64.8572 113.188 62.5532 110.692L62.6492 109.444C67.0012 108.548 72.7292 108.1 79.8332 108.1C80.1532 108.932 80.3132 110.436 80.3132 112.612C80.3132 114.788 79.4172 119.428 77.6252 126.532C75.8332 133.636 74.9372 138.052 74.9372 139.78C74.9372 141.508 75.5772 142.372 76.8572 142.372C78.7132 142.372 80.8572 141.7 83.2892 140.356C83.5452 138.82 84.1852 135.876 85.2092 131.524C87.5132 121.284 88.6652 113.956 88.6652 109.54C90.9052 108.644 94.9373 108.196 100.761 108.196H102.585C102.585 111.204 101.689 117.092 99.8972 125.86C98.1052 134.564 97.2092 139.684 97.2092 141.22C97.2092 142.692 97.5292 143.428 98.1692 143.428C98.5532 143.428 100.377 142.66 103.641 141.124L105.465 144.196C99.7693 148.932 94.7773 151.3 90.4893 151.3C88.4412 151.3 86.6812 150.724 85.2092 149.572C83.8012 148.42 83.0012 146.916 82.8092 145.06C77.6252 149.284 72.9212 151.396 68.6972 151.396C66.4572 151.396 64.6012 150.66 63.1292 149.188C61.7212 147.716 61.0172 145.636 61.0172 142.948ZM110.075 150.436H109.403C109.275 149.924 109.211 148.772 109.211 146.98C109.211 145.124 110.075 140.196 111.803 132.196C113.531 124.196 114.395 119.62 114.395 118.468C114.395 116.484 113.499 114.308 111.707 111.94L110.843 110.788L110.939 109.54C114.395 108.58 119.931 108.1 127.547 108.1C128.315 109.764 128.699 112.1 128.699 115.108C129.403 113.956 130.875 112.42 133.115 110.5C135.355 108.58 137.659 107.62 140.027 107.62C143.483 107.62 145.211 110.628 145.211 116.644C144.891 117.028 144.443 117.54 143.867 118.18C143.355 118.756 142.267 119.588 140.604 120.676C139.003 121.764 137.435 122.436 135.899 122.692C135.835 122.692 135.291 121.828 134.267 120.1C133.243 118.372 132.475 117.508 131.964 117.508C130.363 118.084 128.955 119.044 127.739 120.388C124.795 133.636 123.323 142.212 123.323 146.116C123.323 147.524 123.355 148.516 123.419 149.092C121.179 149.988 116.731 150.436 110.075 150.436ZM155.22 160.516C153.108 161.796 152.052 163.044 152.052 164.26C152.052 165.476 152.724 166.084 154.068 166.084C155.476 166.084 157.044 165.412 158.772 164.068C160.5 162.788 161.94 160.676 163.092 157.732C160.02 158.308 157.396 159.236 155.22 160.516ZM183.732 108.292C183.988 108.548 184.116 109.124 184.116 110.02C184.116 110.852 184.052 111.78 183.924 112.804C183.796 113.764 183.572 115.972 183.252 119.428C182.932 122.884 182.612 125.892 182.292 128.452C179.028 157.252 170.26 171.652 155.988 171.652C153.684 171.652 151.572 171.044 149.652 169.828C147.796 168.612 146.868 167.044 146.868 165.124C146.868 162.564 148.436 160.228 151.572 158.116C154.708 156.004 158.932 154.372 164.244 153.22C164.244 153.156 164.436 152.26 164.82 150.532C165.204 148.804 165.46 147.396 165.588 146.308C161.748 149.124 158.132 150.532 154.74 150.532C151.412 150.532 148.66 149.22 146.484 146.596C144.372 143.972 143.316 139.78 143.316 134.02C143.316 126.468 145.012 120.196 148.404 115.204C151.796 110.148 156.276 107.62 161.844 107.62C164.98 107.62 168.084 108.388 171.156 109.924C174.42 108.772 177.94 108.196 181.716 108.196L183.732 108.292ZM166.164 113.284C163.412 113.284 161.236 115.524 159.636 120.004C158.036 124.42 157.236 129.348 157.236 134.788C157.236 140.164 158.452 142.852 160.884 142.852C162.484 142.852 164.372 142.244 166.548 141.028C168.34 130.276 169.62 121.412 170.388 114.436C168.596 113.668 167.188 113.284 166.164 113.284ZM187.178 133.54C187.178 125.54 189.578 119.236 194.378 114.628C199.242 109.956 204.746 107.62 210.89 107.62C214.666 107.62 217.77 108.548 220.202 110.404C222.634 112.26 223.85 114.756 223.85 117.892C223.85 120.964 223.05 123.556 221.45 125.668C219.914 127.78 218.026 129.412 215.786 130.564C211.242 132.804 207.082 134.212 203.306 134.788L201.002 135.076C201.45 141.092 203.914 144.1 208.394 144.1C209.93 144.1 211.562 143.716 213.29 142.948C215.018 142.18 216.362 141.412 217.322 140.644L218.762 139.492L221.066 142.564C220.554 143.268 219.53 144.196 217.994 145.348C216.458 146.5 215.018 147.46 213.674 148.228C209.962 150.276 205.898 151.3 201.482 151.3C197.066 151.3 193.578 149.732 191.018 146.596C188.458 143.46 187.178 139.108 187.178 133.54ZM200.906 130.372C204.17 129.796 206.762 128.42 208.682 126.244C210.602 124.068 211.562 121.252 211.562 117.796C211.562 114.34 210.538 112.612 208.49 112.612C206.058 112.612 204.17 114.692 202.826 118.852C201.546 122.948 200.906 126.788 200.906 130.372ZM227.825 150.436H227.153C227.025 149.924 226.961 148.772 226.961 146.98C226.961 145.124 227.825 140.196 229.553 132.196C231.281 124.196 232.145 119.62 232.145 118.468C232.145 116.484 231.249 114.308 229.457 111.94L228.593 110.788L228.689 109.54C232.145 108.58 237.681 108.1 245.297 108.1C246.065 109.764 246.449 112.1 246.449 115.108C247.153 113.956 248.625 112.42 250.865 110.5C253.105 108.58 255.409 107.62 257.777 107.62C261.233 107.62 262.961 110.628 262.961 116.644C262.641 117.028 262.193 117.54 261.617 118.18C261.105 118.756 260.017 119.588 258.354 120.676C256.753 121.764 255.185 122.436 253.649 122.692C253.585 122.692 253.041 121.828 252.017 120.1C250.993 118.372 250.225 117.508 249.714 117.508C248.113 118.084 246.705 119.044 245.489 120.388C242.545 133.636 241.073 142.212 241.073 146.116C241.073 147.524 241.105 148.516 241.169 149.092C238.929 149.988 234.481 150.436 227.825 150.436Z" fill="black"/>
</svg>
